<mxfile host="app.diagrams.net" agent="Mozilla/5.0 (Windows NT 10.0; Win64; x64) AppleWebKit/537.36 (KHTML, like Gecko) Chrome/141.0.0.0 Safari/537.36 Edg/141.0.0.0" version="28.2.5">
  <diagram id="dianita-cafe" name="Modelo Conceitual">
    <mxGraphModel dx="2058" dy="786" grid="1" gridSize="10" guides="1" tooltips="1" connect="1" arrows="1" fold="1" page="1" pageScale="1" pageWidth="1654" pageHeight="1169" math="0" shadow="0">
      <root>
        <mxCell id="0" />
        <mxCell id="1" parent="0" />
        <mxCell id="10" value="CLIENTE" style="rounded=1;whiteSpace=wrap;html=1;fontSize=14;fontStyle=1;spacing=8;" parent="1" vertex="1">
          <mxGeometry x="60" y="60" width="160" height="60" as="geometry" />
        </mxCell>
        <mxCell id="20" value="PEDIDO" style="rounded=1;whiteSpace=wrap;html=1;fontSize=14;fontStyle=1;spacing=8;" parent="1" vertex="1">
          <mxGeometry x="320" y="60" width="160" height="60" as="geometry" />
        </mxCell>
        <mxCell id="30" value="PRODUTO" style="rounded=1;whiteSpace=wrap;html=1;fontSize=14;fontStyle=1;spacing=8;" parent="1" vertex="1">
          <mxGeometry x="580" y="60" width="160" height="60" as="geometry" />
        </mxCell>
        <mxCell id="40" value="ITEM_PEDIDO" style="rounded=1;whiteSpace=wrap;html=1;fontSize=14;fontStyle=1;spacing=8;" parent="1" vertex="1">
          <mxGeometry x="320" y="180" width="160" height="60" as="geometry" />
        </mxCell>
        <mxCell id="50" value="PAGAMENTO" style="rounded=1;whiteSpace=wrap;html=1;fontSize=14;fontStyle=1;spacing=8;" parent="1" vertex="1">
          <mxGeometry x="320" y="300" width="160" height="60" as="geometry" />
        </mxCell>
        <mxCell id="100" style="endArrow=none;strokeWidth=2;" parent="1" source="10" target="20" edge="1">
          <mxGeometry relative="1" as="geometry" />
        </mxCell>
        <mxCell id="110" style="endArrow=none;strokeWidth=2;" parent="1" source="20" target="40" edge="1">
          <mxGeometry relative="1" as="geometry" />
        </mxCell>
        <mxCell id="120" style="endArrow=none;strokeWidth=2;" parent="1" source="30" target="40" edge="1">
          <mxGeometry relative="1" as="geometry" />
        </mxCell>
        <mxCell id="130" style="endArrow=none;strokeWidth=2;" parent="1" source="40" target="50" edge="1">
          <mxGeometry relative="1" as="geometry" />
        </mxCell>
        <mxCell id="200" value="1 : N" style="text;html=1;strokeColor=none;fillColor=none;resizable=0;rotatable=0;whiteSpace=wrap;fontSize=12;" parent="1" vertex="1">
          <mxGeometry x="240" y="60" width="70" height="20" as="geometry" />
        </mxCell>
        <mxCell id="210" value="1 : N" style="text;html=1;strokeColor=none;fillColor=none;resizable=0;rotatable=0;whiteSpace=wrap;fontSize=12;" parent="1" vertex="1">
          <mxGeometry x="360" y="150" width="70" height="20" as="geometry" />
        </mxCell>
        <mxCell id="220" value="1 : N" style="text;html=1;strokeColor=none;fillColor=none;resizable=0;rotatable=0;whiteSpace=wrap;fontSize=12;" parent="1" vertex="1">
          <mxGeometry x="550" y="150" width="70" height="20" as="geometry" />
        </mxCell>
        <mxCell id="230" value="1 : 1" style="text;html=1;strokeColor=none;fillColor=none;resizable=0;rotatable=0;whiteSpace=wrap;fontSize=12;" parent="1" vertex="1">
          <mxGeometry x="360" y="265" width="70" height="20" as="geometry" />
        </mxCell>
        <mxCell id="240" value="Modelo Conceitual – Dianita Café (Autor: Ricardo)" style="text;html=1;strokeColor=none;fillColor=none;resizable=0;rotatable=0;whiteSpace=wrap;fontSize=12;" parent="1" vertex="1">
          <mxGeometry x="60" y="380" width="70" height="20" as="geometry" />
        </mxCell>
      </root>
    </mxGraphModel>
  </diagram>
</mxfile>
